<svg xmlns="http://www.w3.org/2000/svg" viewBox="0 0 64 64" role="img" aria-label="Revive Roots Essential">
  <rect width="64" height="64" rx="18" fill="#E3E1BB"/>
  <rect x="5" y="5" width="54" height="54" rx="15" fill="none" stroke="#052012" stroke-opacity=".12" stroke-width="2"/>
  <path d="M32 47c-.9 0-1.6-.7-1.6-1.6V24.8c0-4.3 2.9-7.6 7.4-8.8.8-.2 1.6.3 1.8 1.1.2.8-.3 1.6-1.1 1.8-3.1.8-5.1 2.9-5.1 5.9v20.6c0 .9-.7 1.6-1.5 1.6z" fill="#052012"/>
  <path d="M31.6 31.2c-6.5 0-11.8-4.6-13.1-11.5 0-.3.1-.7.4-.9.3-.3.6-.4 1-.3 7 1 11.5 4.5 13.2 10.8.1.4 0 .8-.3 1.2-.3.4-.7.7-1.2.7z" fill="#6D8A4F"/>
  <path d="M34.2 36.2c-.4 0-.9-.2-1.1-.6-.3-.3-.4-.8-.3-1.2 1.6-5.9 5.8-9.2 12.5-10.2.4-.1.8.1 1 .3.3.2.4.6.4 1 0 6.4-5.4 10.7-12.5 10.7z" fill="#9FB37A"/>
  <circle cx="32" cy="49.5" r="2.6" fill="#052012"/>
</svg>
